<svg width="24" height="24" viewBox="0 0 24 24" fill="none" xmlns="http://www.w3.org/2000/svg">
  <rect width="24" height="24" rx="4" fill="#0F1342"/>
  <path d="M21 4C21.4714 4 21.7571 4 21.8786 4.12145C22 4.24289 22 4.5286 22 5.1V18.9C22 19.4714 22 19.7571 21.8786 19.8786C21.7571 20 21.4714 20 21 20H3C2.5286 20 2.24289 20 2.12145 19.8786C2 19.7571 2 19.4714 2 18.9V5.1C2 4.5286 2 4.24289 2.12145 4.12145C2.24289 4 2.5286 4 3 4H21Z" stroke="#5C7DFF" strokeWidth="1.5"/>
  <path d="M3 7.5H21" stroke="#5C7DFF" strokeWidth="1.5" strokeLinecap="round"/>
  <path d="M3 12.5H21" stroke="#5C7DFF" strokeWidth="1.5" strokeLinecap="round"/>
  <path d="M9 15.5L12 17.5L15 15.5" stroke="#5C7DFF" strokeWidth="1.5" strokeLinecap="round" strokeLinejoin="round"/>
</svg>